HIERARCHY
ROOT Hips
{
	OFFSET	0.00	0.00	0.00
	CHANNELS 6 Xposition Yposition Zposition Zrotation Xrotation Yrotation
	JOINT Chest
	{
		OFFSET	 0.000000	 4.570000	 0.000000
		CHANNELS 3 Zrotation Xrotation Yrotation
		JOINT Neck
		{
			OFFSET	 0.000000	 17.620001	 0.000000
			CHANNELS 3 Zrotation Xrotation Yrotation
			JOINT Head
			{
				OFFSET	 0.000000	 5.190000	 0.000000
				CHANNELS 3 Zrotation Xrotation Yrotation
				End Site 
				{
					OFFSET	 0.000000	 4.140008	 0.000000
				}
			}
		}
		JOINT LeftCollar
		{
			OFFSET	 1.060000	 15.330000	 01.760000
			CHANNELS 3 Zrotation Xrotation Yrotation
			JOINT LeftShoulder
			{
				OFFSET	 5.00000	 0.000000	 0.000000
				CHANNELS 3 Zrotation Xrotation Yrotation
				JOINT LeftElbow
				{
					OFFSET	 0.000000	-11.90000	 0.000000
					CHANNELS 3 Zrotation Xrotation Yrotation
					JOINT LeftWrist
					{
						OFFSET	 0.000000	-9.520000	 0.000000
						CHANNELS 3 Zrotation Xrotation Yrotation
						End Site 
						{
							OFFSET	 0.000000	-7.0	 0.000000
						}
					}
				}
			}
		}
		JOINT RightCollar
		{
			OFFSET	-1.060000	 15.330000	 01.760000
			CHANNELS 3 Zrotation Xrotation Yrotation
			JOINT RightShoulder
			{
				OFFSET	-5.000000	 0.000000	 0.000000
				CHANNELS 3 Zrotation Xrotation Yrotation
				JOINT RightElbow
				{
					OFFSET	 0.000000	-11.900000	 0.000000
					CHANNELS 3 Zrotation Xrotation Yrotation
					JOINT RightWrist
					{
						OFFSET	 0.000000	-9.520000	 0.000000
						CHANNELS 3 Zrotation Xrotation Yrotation
						End Site 
						{
							OFFSET	 0.000000	-7.0	 0.000000
						}
					}
				}
			}
		}
	}
	JOINT LeftHip
	{
		OFFSET	 3.430000	 0.000000	 0.000000
		CHANNELS 3 Zrotation Xrotation Yrotation
		JOINT LeftKnee
		{
			OFFSET	 0.000000	-19.0	 0.000000
			CHANNELS 3 Zrotation Xrotation Yrotation
			JOINT LeftAnkle
			{
				OFFSET	 0.000000	-15.00000	 0.000000
				CHANNELS 3 Zrotation Xrotation Yrotation
				End Site 
				{
					OFFSET	 0.000000	-3.0	 0.000000
				}
			}
		}
	}
	JOINT RightHip
	{
		OFFSET	-3.430000	 0.000000	 0.000000
		CHANNELS 3 Zrotation Xrotation Yrotation
		JOINT RightKnee
		{
			OFFSET	 0.000000	-19.0	 0.000000
			CHANNELS 3 Zrotation Xrotation Yrotation
			JOINT RightAnkle
			{
				OFFSET	 0.000000	-15.00000	 0.000000
				CHANNELS 3 Zrotation Xrotation Yrotation
				End Site 
				{
					OFFSET	 0.000000	-3.0	 0.000000
				}
			}
		}
	}
}
MOTION
Frames: 8
Frame Time: 0.033333333
-9.613053	47.844687	-8.963279	-204.058384	-247.022281	37.199012	-350.532101	-321.394570	-0.040771	-13.662883	56.011924	9.387669	20.724766	-10.776034	23.658473	36.502255	15.176658	52.011834	51.246737	45.844331	52.889760	101.522242	-164.113827	8.650826	359.734251	334.203633	54.798934	-71.542309	21.260939	22.472503	286.092219	275.705387	-1.871193	298.681596	-348.355648	-10.045415	208.905209	195.100960	106.389653	11.519792	-23.585874	23.978123	-342.473380	-329.272373	-5.487808	-333.279700	-310.585167	-41.209368	-44.306097	36.775735	20.374869	355.686872	-292.373507	5.240214	-286.397146	-320.504460	-37.393147	
-11.035086	48.966638	-8.045112	-235.616275	-252.523070	75.583718	-338.216997	-312.151439	-9.942406	-10.475730	64.068907	8.054543	21.627727	-14.068472	23.096646	37.410659	15.822097	49.816123	54.131269	50.969138	61.781095	101.837120	-178.739011	14.239645	-4.169927	-18.020777	53.443736	-63.626824	21.528525	23.748620	-38.526463	-72.388187	41.458889	-54.014579	21.193399	0.037844	207.939899	197.875861	106.617577	8.588770	-0.007002	20.307612	-344.090851	-334.401135	-3.558087	-341.380768	-303.171762	-39.094175	-47.981968	35.122802	21.184051	345.438829	-309.915918	10.047789	-332.860381	-315.756331	-12.893272	
-11.925979	49.036442	-7.235153	-250.461145	-248.382281	96.966192	-330.674802	-309.276749	-16.479906	-0.508982	65.503329	0.054171	21.028548	-16.154886	23.229119	36.675437	16.256051	48.477970	48.333259	53.261175	66.516062	97.241612	-177.601565	20.644938	-1.462503	-12.662895	54.545052	-54.869623	21.779540	25.172983	-44.139584	-55.745267	46.456750	314.955259	-329.126726	-4.928462	209.271116	189.884322	105.144803	6.061730	12.916664	17.708197	-346.063710	-332.344619	-3.560744	-330.022765	-312.706897	-36.059764	-47.463752	26.088446	12.103085	-12.633642	32.501656	4.754822	36.728979	27.802624	-15.316185	
-11.944188	47.743420	-6.668149	-236.777271	-242.266202	93.094711	-330.897985	-313.237685	-14.182510	-344.571068	-300.575279	-11.899405	18.481926	-18.212130	19.115718	33.716152	16.417652	48.315985	33.546589	48.356761	48.272975	79.416274	-143.186852	10.730064	-4.788066	-9.412078	53.646729	-46.883394	22.904791	18.004921	-46.673629	-40.372219	50.355421	318.397647	-330.085985	-7.360619	208.649405	183.092792	104.559593	2.639389	13.764498	17.395591	-345.769820	-326.141715	-5.098144	-350.818532	-308.730170	-37.950449	312.858992	-355.944726	-11.859622	-9.627401	16.076817	0.623169	-15.258961	17.899774	26.759828	
-10.958314	47.259144	-6.701422	-236.879232	-238.681610	97.118935	-332.971139	-308.849015	-15.041765	-338.441000	-304.361909	-15.584070	16.063334	-19.087009	18.005437	27.321726	15.947048	50.609576	26.460314	36.508723	24.786440	-320.037329	245.496554	-30.251344	-6.492665	-10.247335	52.969646	-42.841619	23.213895	16.291479	-52.182405	-32.187143	49.563697	319.410017	-334.379469	-13.044699	-142.708056	176.940130	102.928776	4.181737	18.064748	16.760435	-353.476268	-311.782800	-3.492352	353.649645	-301.718107	-9.644925	323.331748	336.217036	-24.839019	-8.638314	20.613058	1.316253	9.199032	39.732862	14.442264	
-9.773144	47.062566	-8.309903	-237.217436	-239.717367	102.694753	-337.353716	-307.259220	-12.632785	-329.061839	-307.238156	-21.508456	14.042632	-16.804797	21.680534	28.165391	16.267224	49.466964	23.445044	21.505683	16.030225	181.451046	292.847768	102.054437	348.373434	344.304308	50.405476	-36.647772	23.587127	14.451242	-53.644103	-25.489000	50.310991	313.527804	-342.375271	-13.372921	-143.939922	173.245011	102.880814	14.753049	21.024561	15.607062	-7.749085	62.795501	6.665959	-356.769812	-314.938566	-9.192420	345.620512	311.424980	-11.090751	-10.619197	34.105637	4.362218	25.452873	39.751884	4.260062	
-9.373680	46.909743	-10.574262	-238.567382	-239.646661	119.703351	-339.291714	-311.966723	-9.333259	-302.117126	-314.064766	-39.572103	9.841124	-16.770224	22.764287	32.004889	18.781164	40.011732	23.085199	-3.760812	12.504545	-191.523895	294.696918	78.446571	-16.408602	-17.410674	48.146497	-15.372834	24.632604	0.900261	-59.764639	-11.046401	49.748101	303.703807	358.130741	-16.189862	-154.347081	166.891160	104.679046	28.326672	17.792031	17.835883	-8.907741	77.111952	8.956111	-326.224333	-328.722051	-18.838404	9.483941	-62.074513	12.231530	-356.970757	-314.608203	-1.020903	-316.395172	-323.948459	-17.203952	
-10.128781	46.506816	-12.450128	297.959399	-303.060212	-33.546685	-335.723733	-319.542796	-7.942561	-287.501451	-330.559563	-37.436133	6.391564	-15.816293	11.613445	46.789383	21.853579	22.897136	18.296008	-33.947894	8.884907	-193.740537	284.608920	67.042710	-18.369283	-14.365370	48.263980	-356.725717	-336.812792	-22.805338	-60.854839	-0.636466	50.207978	296.437578	342.147061	-23.048135	-164.650790	165.566704	105.941914	30.189630	4.569419	26.609629	-94.706970	108.367724	100.060780	-329.736908	-326.311541	-8.992233	9.881758	-70.651659	13.400499	-339.438399	-318.119057	-10.145045	-313.528514	-329.796522	-21.976507	
